<?xml version="1.0" encoding="UTF-8"?><svg id="_레이어_1" xmlns="http://www.w3.org/2000/svg" viewBox="0 0 500 500"><defs><style>.cls-1{stroke-width:0px;}</style></defs><path class="cls-1" d="m332.31,163.76c-4.51,4.96-9.34,9.9-14.48,14.82-5.57,5.32-11.12,10.25-16.47,14.75,49.16,20.26,83.85,68.68,83.85,125.07,0,74.55-60.66,135.21-135.21,135.21s-135.21-60.66-135.21-135.21c0-56.38,34.69-104.81,83.85-125.07-5.35-4.5-10.9-9.43-16.47-14.75-5.14-4.91-9.97-9.86-14.48-14.82-55.23,29.52-92.9,87.75-92.9,154.63,0,96.61,78.6,175.21,175.21,175.21s175.21-78.6,175.21-175.21c0-66.88-37.67-125.11-92.9-154.63Z"/><path class="cls-1" d="m250,206.22s-108.02-65.15-108.02-141.34c0-32.3,20.8-58.48,53.1-58.48,39.31,0,54.93,38.99,54.93,38.99,0,0,15.62-38.99,54.93-38.99,32.3,0,53.1,26.18,53.1,58.48,0,76.18-108.02,141.34-108.02,141.34Z"/></svg>